<svg width="47" height="43" viewBox="0 0 47 43" fill="none" xmlns="http://www.w3.org/2000/svg">
<path d="M19.6687 12.5881C19.8096 12.5356 19.961 12.5083 20.1141 12.5078C20.2672 12.5074 20.4189 12.5337 20.5601 12.5853C20.7014 12.6368 20.8294 12.7126 20.9365 12.8081C21.0437 12.9036 21.1278 13.0168 21.1839 13.1412C21.2401 13.2656 21.2671 13.3985 21.2634 13.5321C21.2596 13.6657 21.2253 13.7974 21.1623 13.9192C21.0993 14.041 21.009 14.1506 20.8967 14.2415C20.7843 14.3323 20.6523 14.4025 20.5083 14.4481C19.7427 14.7114 19.0855 15.1699 18.6224 15.7638C18.1592 16.3577 17.9116 17.0596 17.9116 17.7781V19.5181C17.9116 19.7833 18.0323 20.0376 18.2471 20.2252C18.4619 20.4127 18.7533 20.5181 19.0571 20.5181H28.2206C28.5244 20.5181 28.8158 20.4127 29.0306 20.2252C29.2454 20.0376 29.3661 19.7833 29.3661 19.5181V17.8711C29.3662 17.1295 29.1082 16.4055 28.6262 15.7949C28.1443 15.1843 27.4612 14.716 26.6674 14.4521C26.5226 14.4082 26.3893 14.3394 26.2754 14.2497C26.1616 14.16 26.0696 14.0513 26.0048 13.9299C25.94 13.8086 25.9038 13.6772 25.8982 13.5434C25.8927 13.4096 25.918 13.2763 25.9726 13.1512C26.0272 13.0261 26.11 12.9119 26.2161 12.8152C26.3223 12.7186 26.4495 12.6416 26.5904 12.5887C26.7312 12.5358 26.8828 12.5081 27.0361 12.5074C27.1895 12.5066 27.3414 12.5326 27.483 12.5841C28.7104 12.9922 29.7669 13.7164 30.5123 14.6606C31.2577 15.6047 31.6569 16.7244 31.657 17.8711V19.5181C31.657 20.3137 31.2949 21.0768 30.6505 21.6394C30.006 22.202 29.132 22.5181 28.2206 22.5181H19.0571C18.1457 22.5181 17.2716 22.202 16.6272 21.6394C15.9828 21.0768 15.6207 20.3137 15.6207 19.5181V17.7781C15.6209 16.6582 16.0071 15.5643 16.729 14.6387C17.451 13.7131 18.4753 12.9985 19.6687 12.5881ZM23.6388 2.51807C24.854 2.51807 26.0194 2.93949 26.8787 3.68964C27.7379 4.43978 28.2206 5.4572 28.2206 6.51807V8.51807C28.2206 9.57893 27.7379 10.5963 26.8787 11.3465C26.0194 12.0966 24.854 12.5181 23.6388 12.5181C22.4237 12.5181 21.2583 12.0966 20.399 11.3465C19.5398 10.5963 19.0571 9.57893 19.0571 8.51807V6.51807C19.0571 5.4572 19.5398 4.43978 20.399 3.68964C21.2583 2.93949 22.4237 2.51807 23.6388 2.51807ZM23.6388 4.51807C23.0313 4.51807 22.4486 4.72878 22.0189 5.10385C21.5893 5.47893 21.348 5.98763 21.348 6.51807V8.51807C21.348 9.0485 21.5893 9.55721 22.0189 9.93228C22.4486 10.3074 23.0313 10.5181 23.6388 10.5181C24.2464 10.5181 24.8291 10.3074 25.2588 9.93228C25.6884 9.55721 25.9297 9.0485 25.9297 8.51807V6.51807C25.9297 5.98763 25.6884 5.47893 25.2588 5.10385C24.8291 4.72878 24.2464 4.51807 23.6388 4.51807Z" fill="#181725"/>
<path d="M8.47603 38.6865H6.98803L6.40003 36.9945H2.82403L2.23603 38.6865H0.736025L3.78403 30.2865H5.44003L8.47603 38.6865ZM4.61203 31.9065L3.28003 35.6985H5.94403L4.61203 31.9065ZM11.975 38.8425C11.071 38.8425 10.315 38.5385 9.70696 37.9305C9.10696 37.3145 8.80696 36.5665 8.80696 35.6865C8.80696 34.7905 9.10696 34.0425 9.70696 33.4425C10.315 32.8345 11.071 32.5305 11.975 32.5305C12.559 32.5305 13.091 32.6705 13.571 32.9505C14.051 33.2305 14.411 33.6065 14.651 34.0785L13.535 34.7265C13.399 34.4385 13.191 34.2145 12.911 34.0545C12.639 33.8865 12.323 33.8025 11.963 33.8025C11.435 33.8025 10.991 33.9825 10.631 34.3425C10.279 34.7105 10.103 35.1585 10.103 35.6865C10.103 36.2145 10.279 36.6625 10.631 37.0305C10.991 37.3905 11.435 37.5705 11.963 37.5705C12.315 37.5705 12.631 37.4905 12.911 37.3305C13.199 37.1625 13.415 36.9345 13.559 36.6465L14.675 37.2825C14.419 37.7625 14.047 38.1425 13.559 38.4225C13.079 38.7025 12.551 38.8425 11.975 38.8425ZM18.35 38.8425C17.446 38.8425 16.69 38.5385 16.082 37.9305C15.482 37.3145 15.182 36.5665 15.182 35.6865C15.182 34.7905 15.482 34.0425 16.082 33.4425C16.69 32.8345 17.446 32.5305 18.35 32.5305C18.934 32.5305 19.466 32.6705 19.946 32.9505C20.426 33.2305 20.786 33.6065 21.026 34.0785L19.91 34.7265C19.774 34.4385 19.566 34.2145 19.286 34.0545C19.014 33.8865 18.698 33.8025 18.338 33.8025C17.81 33.8025 17.366 33.9825 17.006 34.3425C16.654 34.7105 16.478 35.1585 16.478 35.6865C16.478 36.2145 16.654 36.6625 17.006 37.0305C17.366 37.3905 17.81 37.5705 18.338 37.5705C18.69 37.5705 19.006 37.4905 19.286 37.3305C19.574 37.1625 19.79 36.9345 19.934 36.6465L21.05 37.2825C20.794 37.7625 20.422 38.1425 19.934 38.4225C19.454 38.7025 18.926 38.8425 18.35 38.8425ZM26.969 37.9305C26.361 38.5385 25.613 38.8425 24.725 38.8425C23.837 38.8425 23.089 38.5385 22.481 37.9305C21.865 37.3145 21.557 36.5665 21.557 35.6865C21.557 34.8065 21.865 34.0585 22.481 33.4425C23.089 32.8345 23.837 32.5305 24.725 32.5305C25.613 32.5305 26.361 32.8345 26.969 33.4425C27.585 34.0585 27.893 34.8065 27.893 35.6865C27.893 36.5665 27.585 37.3145 26.969 37.9305ZM22.853 35.6865C22.853 36.2305 23.033 36.6825 23.393 37.0425C23.753 37.4025 24.197 37.5825 24.725 37.5825C25.253 37.5825 25.697 37.4025 26.057 37.0425C26.417 36.6825 26.597 36.2305 26.597 35.6865C26.597 35.1425 26.417 34.6905 26.057 34.3305C25.697 33.9705 25.253 33.7905 24.725 33.7905C24.197 33.7905 23.753 33.9705 23.393 34.3305C23.033 34.6905 22.853 35.1425 22.853 35.6865ZM33.1088 35.9025V32.6865H34.4048V38.6865H33.1088V37.9185C32.7088 38.5345 32.0888 38.8425 31.2488 38.8425C30.5528 38.8425 29.9928 38.6225 29.5688 38.1825C29.1528 37.7345 28.9448 37.1305 28.9448 36.3705V32.6865H30.2408V36.2385C30.2408 36.6865 30.3608 37.0305 30.6008 37.2705C30.8408 37.5105 31.1688 37.6305 31.5848 37.6305C32.0568 37.6305 32.4288 37.4865 32.7008 37.1985C32.9728 36.9025 33.1088 36.4705 33.1088 35.9025ZM39.0763 32.5305C39.7723 32.5305 40.3283 32.7545 40.7443 33.2025C41.1683 33.6425 41.3803 34.2425 41.3803 35.0025V38.6865H40.0843V35.1345C40.0843 34.6865 39.9643 34.3425 39.7243 34.1025C39.4843 33.8625 39.1563 33.7425 38.7403 33.7425C38.2683 33.7425 37.8963 33.8905 37.6243 34.1865C37.3523 34.4745 37.2163 34.9025 37.2163 35.4705V38.6865H35.9203V32.6865H37.2163V33.4545C37.6163 32.8385 38.2363 32.5305 39.0763 32.5305ZM46.1238 32.6865V33.9345H44.6358V36.8145C44.6358 37.0625 44.6918 37.2425 44.8038 37.3545C44.9158 37.4585 45.0798 37.5185 45.2958 37.5345C45.5198 37.5425 45.7958 37.5385 46.1238 37.5225V38.6865C45.1318 38.8065 44.4198 38.7225 43.9878 38.4345C43.5558 38.1385 43.3398 37.5985 43.3398 36.8145V33.9345H42.2358V32.6865H43.3398V31.3905L44.6358 31.0065V32.6865H46.1238Z" fill="#181725"/>
</svg>
