<svg width="27" height="41" viewBox="0 0 27 41" fill="none" xmlns="http://www.w3.org/2000/svg">
<path d="M5.70433 36.8425C4.44033 36.8425 3.39233 36.4265 2.56033 35.5945C1.72833 34.7465 1.31233 33.7105 1.31233 32.4865C1.31233 31.2545 1.72833 30.2225 2.56033 29.3905C3.38433 28.5505 4.43233 28.1305 5.70433 28.1305C6.46433 28.1305 7.16433 28.3105 7.80433 28.6705C8.45233 29.0305 8.95633 29.5185 9.31633 30.1345L8.11633 30.8305C7.89233 30.4145 7.56433 30.0865 7.13233 29.8465C6.70833 29.5985 6.23233 29.4745 5.70433 29.4745C4.81633 29.4745 4.08833 29.7585 3.52033 30.3265C2.96833 30.8865 2.69233 31.6065 2.69233 32.4865C2.69233 33.3665 2.96833 34.0865 3.52033 34.6465C4.08833 35.2145 4.81633 35.4985 5.70433 35.4985C6.23233 35.4985 6.71233 35.3785 7.14433 35.1385C7.57633 34.8905 7.90033 34.5585 8.11633 34.1425L9.31633 34.8265C8.97233 35.4345 8.47233 35.9265 7.81633 36.3025C7.18433 36.6625 6.48033 36.8425 5.70433 36.8425ZM15.1191 31.5385V30.6865H16.4151V36.6865H15.1191V35.8225C14.6311 36.5025 13.9311 36.8425 13.0191 36.8425C12.1951 36.8425 11.4911 36.5385 10.9071 35.9305C10.3231 35.3225 10.0311 34.5745 10.0311 33.6865C10.0311 32.7985 10.3231 32.0505 10.9071 31.4425C11.4911 30.8345 12.1951 30.5305 13.0191 30.5305C13.9311 30.5305 14.6311 30.8665 15.1191 31.5385ZM11.8671 35.0665C12.2271 35.4265 12.6791 35.6065 13.2231 35.6065C13.7671 35.6065 14.2191 35.4265 14.5791 35.0665C14.9391 34.6985 15.1191 34.2385 15.1191 33.6865C15.1191 33.1345 14.9391 32.6785 14.5791 32.3185C14.2191 31.9505 13.7671 31.7665 13.2231 31.7665C12.6791 31.7665 12.2271 31.9505 11.8671 32.3185C11.5071 32.6785 11.3271 33.1345 11.3271 33.6865C11.3271 34.2305 11.5071 34.6905 11.8671 35.0665ZM19.2217 30.6865V31.6945C19.5497 30.9505 20.1657 30.5785 21.0697 30.5785V31.9825C20.5817 31.9505 20.1497 32.0705 19.7737 32.3425C19.4057 32.6065 19.2217 33.0465 19.2217 33.6625V36.6865H17.9257V30.6865H19.2217ZM25.5276 30.6865V31.9345H24.0396V34.8145C24.0396 35.0625 24.0956 35.2425 24.2076 35.3545C24.3196 35.4585 24.4836 35.5185 24.6996 35.5345C24.9236 35.5425 25.1996 35.5385 25.5276 35.5225V36.6865C24.5356 36.8065 23.8236 36.7225 23.3916 36.4345C22.9596 36.1385 22.7436 35.5985 22.7436 34.8145V31.9345H21.6396V30.6865H22.7436V29.3905L24.0396 29.0065V30.6865H25.5276Z" fill="#181725"/>
<path d="M10.985 20.5181C10.3364 20.5181 9.71443 20.2604 9.25583 19.8018C8.79724 19.3432 8.5396 18.7212 8.5396 18.0727C8.5396 17.4241 8.79724 16.8021 9.25583 16.3436C9.71443 15.885 10.3364 15.6273 10.985 15.6273C11.6335 15.6273 12.2555 15.885 12.7141 16.3436C13.1727 16.8021 13.4303 17.4241 13.4303 18.0727C13.4303 18.7212 13.1727 19.3432 12.7141 19.8018C12.2555 20.2604 11.6335 20.5181 10.985 20.5181ZM19.5437 20.5181C18.8952 20.5181 18.2732 20.2604 17.8146 19.8018C17.356 19.3432 17.0984 18.7212 17.0984 18.0727C17.0984 17.4241 17.356 16.8021 17.8146 16.3436C18.2732 15.885 18.8952 15.6273 19.5437 15.6273C20.1923 15.6273 20.8143 15.885 21.2729 16.3436C21.7315 16.8021 21.9891 17.4241 21.9891 18.0727C21.9891 18.7212 21.7315 19.3432 21.2729 19.8018C20.8143 20.2604 20.1923 20.5181 19.5437 20.5181ZM3.60241 3.30636C3.29718 3.29651 3.00775 3.16834 2.79532 2.94895C2.58289 2.72955 2.46411 2.43614 2.46411 2.13075C2.46411 1.82536 2.58289 1.53195 2.79532 1.31255C3.00775 1.09316 3.29718 0.964984 3.60241 0.955139L5.00972 0.955139C6.11258 0.955139 7.06627 1.72054 7.30592 2.7965L8.83794 9.69487C9.07758 10.7708 10.0313 11.5362 11.1341 11.5362H20.3189L22.082 4.48135H10.6561C10.3537 4.46756 10.0683 4.33774 9.85922 4.11889C9.65014 3.90005 9.53346 3.60903 9.53346 3.30636C9.53346 3.00369 9.65014 2.71266 9.85922 2.49382C10.0683 2.27498 10.3537 2.14516 10.6561 2.13136H22.082C22.4395 2.13125 22.7922 2.21264 23.1135 2.36933C23.4347 2.52603 23.716 2.7539 23.936 3.03564C24.1559 3.31737 24.3088 3.64554 24.3829 3.99521C24.457 4.34488 24.4504 4.70684 24.3636 5.05357L22.6004 12.106C22.4733 12.6149 22.1797 13.0666 21.7663 13.3894C21.3529 13.7122 20.8434 13.8875 20.3189 13.8874H11.1341C10.064 13.8876 9.02589 13.5227 8.19115 12.8532C7.35642 12.1836 6.77501 11.2494 6.54296 10.2047L5.00972 3.30636H3.60241Z" fill="#181725"/>
</svg>
