<svg width="42" height="39" viewBox="0 0 42 39" fill="none" xmlns="http://www.w3.org/2000/svg">
<path d="M24.5166 14.0713C25.3045 14.0713 26.0848 13.9161 26.8127 13.6146C27.5407 13.313 28.2021 12.8711 28.7593 12.3139C29.3164 11.7568 29.7584 11.0953 30.0599 10.3674C30.3614 9.63943 30.5166 8.85921 30.5166 8.07128C30.5166 7.28335 30.3614 6.50314 30.0599 5.77518C29.7584 5.04723 29.3164 4.38579 28.7593 3.82864C28.2021 3.27149 27.5407 2.82953 26.8127 2.52801C26.0848 2.22648 25.3045 2.07128 24.5166 2.07128C22.9253 2.07128 21.3992 2.70342 20.274 3.82864C19.1488 4.95386 18.5166 6.47998 18.5166 8.07128C18.5166 9.66258 19.1488 11.1887 20.274 12.3139C21.3992 13.4391 22.9253 14.0713 24.5166 14.0713ZM30.8366 12.9773L34.4166 16.5573C34.5121 16.6496 34.5882 16.76 34.6405 16.882C34.6928 17.0041 34.7203 17.1353 34.7214 17.2681C34.7224 17.4009 34.697 17.5325 34.6467 17.6554C34.5963 17.7783 34.5219 17.8899 34.428 17.9837C34.334 18.0775 34.2223 18.1517 34.0994 18.2019C33.9765 18.2521 33.8448 18.2773 33.712 18.276C33.5792 18.2748 33.448 18.2471 33.3261 18.1946C33.2041 18.1421 33.0938 18.0659 33.0016 17.9703L29.4216 14.3903C27.8141 15.6381 25.7914 16.2265 23.7654 16.0355C21.7393 15.8445 19.8622 14.8886 18.5162 13.3623C17.1701 11.8361 16.4563 9.85423 16.52 7.82021C16.5838 5.78618 17.4203 3.85291 18.8593 2.41393C20.2982 0.974952 22.2315 0.13845 24.2655 0.0747088C26.2996 0.0109677 28.2814 0.72478 29.8077 2.07083C31.3339 3.41689 32.2898 5.294 32.4808 7.32004C32.6718 9.34608 32.0835 11.3687 30.8356 12.9763L30.8366 12.9773Z" fill="#53B175"/>
<rect x="6.37207" y="0.0707798" width="8.85499" height="2.39923" rx="1.19961" fill="#53B175"/>
<rect x="6.37207" y="7.50897" width="6.46414" height="2.39923" rx="1.19961" fill="#53B175"/>
<rect x="6.37207" y="14.9476" width="8.85499" height="2.39923" rx="1.19961" fill="#53B175"/>
<path d="M2.29996 30.9322V33.2002H6.01996V34.5202H0.919956V26.1202H5.95996V27.4402H2.29996V29.6242H5.65996V30.9322H2.29996ZM10.3192 31.4482L12.5632 34.5202H11.0632L9.57524 32.4682L8.07524 34.5202H6.56324L8.81924 31.4362L6.68324 28.5202H8.18324L9.56324 30.4162L10.9432 28.5202H12.4552L10.3192 31.4482ZM16.8296 28.3642C17.6456 28.3642 18.3496 28.6722 18.9416 29.2882C19.5256 29.8962 19.8176 30.6402 19.8176 31.5202C19.8176 32.4082 19.5256 33.1562 18.9416 33.7642C18.3576 34.3722 17.6536 34.6762 16.8296 34.6762C15.9256 34.6762 15.2256 34.3402 14.7296 33.6682V36.9202H13.4336V28.5202H14.7296V29.3842C15.2176 28.7042 15.9176 28.3642 16.8296 28.3642ZM15.2696 32.9002C15.6296 33.2602 16.0816 33.4402 16.6256 33.4402C17.1696 33.4402 17.6216 33.2602 17.9816 32.9002C18.3416 32.5322 18.5216 32.0722 18.5216 31.5202C18.5216 30.9682 18.3416 30.5122 17.9816 30.1522C17.6216 29.7842 17.1696 29.6002 16.6256 29.6002C16.0816 29.6002 15.6296 29.7842 15.2696 30.1522C14.9096 30.5122 14.7296 30.9682 14.7296 31.5202C14.7296 32.0642 14.9096 32.5242 15.2696 32.9002ZM22.2882 34.5202H20.9922V25.7602H22.2882V34.5202ZM28.869 33.7642C28.261 34.3722 27.513 34.6762 26.625 34.6762C25.737 34.6762 24.989 34.3722 24.381 33.7642C23.765 33.1482 23.457 32.4002 23.457 31.5202C23.457 30.6402 23.765 29.8922 24.381 29.2762C24.989 28.6682 25.737 28.3642 26.625 28.3642C27.513 28.3642 28.261 28.6682 28.869 29.2762C29.485 29.8922 29.793 30.6402 29.793 31.5202C29.793 32.4002 29.485 33.1482 28.869 33.7642ZM24.753 31.5202C24.753 32.0642 24.933 32.5162 25.293 32.8762C25.653 33.2362 26.097 33.4162 26.625 33.4162C27.153 33.4162 27.597 33.2362 27.957 32.8762C28.317 32.5162 28.497 32.0642 28.497 31.5202C28.497 30.9762 28.317 30.5242 27.957 30.1642C27.597 29.8042 27.153 29.6242 26.625 29.6242C26.097 29.6242 25.653 29.8042 25.293 30.1642C24.933 30.5242 24.753 30.9762 24.753 31.5202ZM32.2609 28.5202V29.5282C32.5889 28.7842 33.2049 28.4122 34.1089 28.4122V29.8162C33.6209 29.7842 33.1889 29.9042 32.8129 30.1762C32.4449 30.4402 32.2609 30.8802 32.2609 31.4962V34.5202H30.9649V28.5202H32.2609ZM40.5812 32.0722H35.8052C35.9012 32.5202 36.1172 32.8682 36.4532 33.1162C36.7972 33.3642 37.2212 33.4882 37.7252 33.4882C38.4052 33.4882 38.9212 33.2402 39.2732 32.7442L40.3412 33.3682C39.7572 34.2402 38.8812 34.6762 37.7132 34.6762C36.7452 34.6762 35.9572 34.3802 35.3492 33.7882C34.7492 33.1882 34.4492 32.4322 34.4492 31.5202C34.4492 30.6322 34.7452 29.8842 35.3372 29.2762C35.9212 28.6682 36.6812 28.3642 37.6172 28.3642C38.4892 28.3642 39.2092 28.6722 39.7772 29.2882C40.3452 29.9042 40.6292 30.6522 40.6292 31.5322C40.6292 31.6922 40.6132 31.8722 40.5812 32.0722ZM35.7932 31.0162H39.3212C39.2332 30.5442 39.0332 30.1802 38.7212 29.9242C38.4172 29.6682 38.0452 29.5402 37.6052 29.5402C37.1252 29.5402 36.7252 29.6722 36.4052 29.9362C36.0852 30.2002 35.8812 30.5602 35.7932 31.0162Z" fill="#53B175"/>
</svg>
