<svg width="54" height="42" viewBox="0 0 54 42" fill="none" xmlns="http://www.w3.org/2000/svg">
<path d="M18.7382 11.0097L26.5623 18.8338L34.3864 11.0097C35.0781 10.318 35.4667 9.37974 35.4667 8.40146C35.4667 7.42319 35.0781 6.48497 34.3864 5.79323C34.0439 5.45071 33.6372 5.17901 33.1897 4.99364C32.7422 4.80827 32.2625 4.71286 31.7781 4.71286C30.7999 4.71286 29.8616 5.10148 29.1699 5.79323L26.5623 8.40085L23.9547 5.79446C23.2611 5.11199 22.3261 4.73121 21.3531 4.73505C20.3801 4.7389 19.448 5.12706 18.7599 5.81499C18.0718 6.50292 17.6835 7.43488 17.6794 8.40787C17.6753 9.38085 18.0559 10.316 18.7382 11.0097ZM25.6931 4.05358L26.5623 4.92279L27.4315 4.05358C28.0014 3.47866 28.6792 3.02197 29.4261 2.70973C30.173 2.39748 30.9742 2.23583 31.7837 2.23406C32.5932 2.23229 33.3951 2.39042 34.1434 2.6994C34.8916 3.00837 35.5715 3.46209 36.1439 4.0345C36.7163 4.60692 37.17 5.28676 37.479 6.035C37.7879 6.78324 37.9461 7.58514 37.9443 8.39466C37.9425 9.20418 37.7809 10.0054 37.4686 10.7523C37.1564 11.4991 36.6997 12.177 36.1248 12.7469L27.4327 21.4402C27.3185 21.5545 27.1829 21.6452 27.0337 21.7071C26.8844 21.7689 26.7245 21.8008 26.5629 21.8008C26.4013 21.8008 26.2413 21.7689 26.0921 21.7071C25.9428 21.6452 25.8072 21.5545 25.6931 21.4402L16.9998 12.7481C16.417 12.18 15.9529 11.5019 15.6343 10.7531C15.3156 10.0042 15.1489 9.19956 15.1437 8.38577C15.1385 7.57198 15.2949 6.76525 15.6039 6.01238C15.9129 5.25951 16.3683 4.57549 16.9437 4C17.5191 3.42451 18.2031 2.969 18.9559 2.6599C19.7087 2.35079 20.5154 2.19425 21.3292 2.19935C22.143 2.20445 22.9477 2.37109 23.6966 2.6896C24.4455 3.00811 25.1237 3.47215 25.6918 4.05481L25.6931 4.05358Z" fill="#181725"/>
<path d="M6.28832 29.2865V30.6065H2.74832V32.9585H6.16832V34.2785H2.74832V37.6865H1.36832V29.2865H6.28832ZM12.2473 32.5385V31.6865H13.5433V37.6865H12.2473V36.8225C11.7593 37.5025 11.0593 37.8425 10.1473 37.8425C9.32326 37.8425 8.61926 37.5385 8.03526 36.9305C7.45126 36.3225 7.15926 35.5745 7.15926 34.6865C7.15926 33.7985 7.45126 33.0505 8.03526 32.4425C8.61926 31.8345 9.32326 31.5305 10.1473 31.5305C11.0593 31.5305 11.7593 31.8665 12.2473 32.5385ZM8.99526 36.0665C9.35526 36.4265 9.80726 36.6065 10.3513 36.6065C10.8953 36.6065 11.3473 36.4265 11.7073 36.0665C12.0673 35.6985 12.2473 35.2385 12.2473 34.6865C12.2473 34.1345 12.0673 33.6785 11.7073 33.3185C11.3473 32.9505 10.8953 32.7665 10.3513 32.7665C9.80726 32.7665 9.35526 32.9505 8.99526 33.3185C8.63526 33.6785 8.45526 34.1345 8.45526 34.6865C8.45526 35.2305 8.63526 35.6905 8.99526 36.0665ZM17.4539 36.2465L19.1219 31.6865H20.5379L18.1979 37.6865H16.6979L14.3579 31.6865H15.7739L17.4539 36.2465ZM26.2002 36.9305C25.5922 37.5385 24.8442 37.8425 23.9562 37.8425C23.0682 37.8425 22.3202 37.5385 21.7122 36.9305C21.0962 36.3145 20.7882 35.5665 20.7882 34.6865C20.7882 33.8065 21.0962 33.0585 21.7122 32.4425C22.3202 31.8345 23.0682 31.5305 23.9562 31.5305C24.8442 31.5305 25.5922 31.8345 26.2002 32.4425C26.8162 33.0585 27.1242 33.8065 27.1242 34.6865C27.1242 35.5665 26.8162 36.3145 26.2002 36.9305ZM22.0842 34.6865C22.0842 35.2305 22.2642 35.6825 22.6242 36.0425C22.9842 36.4025 23.4282 36.5825 23.9562 36.5825C24.4842 36.5825 24.9282 36.4025 25.2882 36.0425C25.6482 35.6825 25.8282 35.2305 25.8282 34.6865C25.8282 34.1425 25.6482 33.6905 25.2882 33.3305C24.9282 32.9705 24.4842 32.7905 23.9562 32.7905C23.4282 32.7905 22.9842 32.9705 22.6242 33.3305C22.2642 33.6905 22.0842 34.1425 22.0842 34.6865ZM32.34 34.9025V31.6865H33.636V37.6865H32.34V36.9185C31.94 37.5345 31.32 37.8425 30.48 37.8425C29.784 37.8425 29.224 37.6225 28.8 37.1825C28.384 36.7345 28.176 36.1305 28.176 35.3705V31.6865H29.472V35.2385C29.472 35.6865 29.592 36.0305 29.832 36.2705C30.072 36.5105 30.4 36.6305 30.816 36.6305C31.288 36.6305 31.66 36.4865 31.932 36.1985C32.204 35.9025 32.34 35.4705 32.34 34.9025ZM36.4475 31.6865V32.6945C36.7755 31.9505 37.3915 31.5785 38.2955 31.5785V32.9825C37.8075 32.9505 37.3755 33.0705 36.9995 33.3425C36.6315 33.6065 36.4475 34.0465 36.4475 34.6625V37.6865H35.1515V31.6865H36.4475ZM40.4771 30.5465C40.3171 30.7065 40.1251 30.7865 39.9011 30.7865C39.6771 30.7865 39.4811 30.7065 39.3131 30.5465C39.1531 30.3785 39.0731 30.1825 39.0731 29.9585C39.0731 29.7345 39.1531 29.5425 39.3131 29.3825C39.4731 29.2145 39.6691 29.1305 39.9011 29.1305C40.1331 29.1305 40.3291 29.2145 40.4891 29.3825C40.6491 29.5425 40.7291 29.7345 40.7291 29.9585C40.7291 30.1825 40.6451 30.3785 40.4771 30.5465ZM40.5491 37.6865H39.2531V31.6865H40.5491V37.6865ZM45.4019 31.6865V32.9345H43.9139V35.8145C43.9139 36.0625 43.9699 36.2425 44.0819 36.3545C44.1939 36.4585 44.3579 36.5185 44.5739 36.5345C44.7979 36.5425 45.0739 36.5385 45.4019 36.5225V37.6865C44.4099 37.8065 43.6979 37.7225 43.2659 37.4345C42.8339 37.1385 42.6179 36.5985 42.6179 35.8145V32.9345H41.5139V31.6865H42.6179V30.3905L43.9139 30.0065V31.6865H45.4019ZM52.1272 35.2385H47.3512C47.4472 35.6865 47.6632 36.0345 47.9992 36.2825C48.3432 36.5305 48.7672 36.6545 49.2712 36.6545C49.9512 36.6545 50.4672 36.4065 50.8192 35.9105L51.8872 36.5345C51.3032 37.4065 50.4272 37.8425 49.2592 37.8425C48.2912 37.8425 47.5032 37.5465 46.8952 36.9545C46.2952 36.3545 45.9952 35.5985 45.9952 34.6865C45.9952 33.7985 46.2912 33.0505 46.8832 32.4425C47.4672 31.8345 48.2272 31.5305 49.1632 31.5305C50.0352 31.5305 50.7552 31.8385 51.3232 32.4545C51.8912 33.0705 52.1752 33.8185 52.1752 34.6985C52.1752 34.8585 52.1592 35.0385 52.1272 35.2385ZM47.3392 34.1825H50.8672C50.7792 33.7105 50.5792 33.3465 50.2672 33.0905C49.9632 32.8345 49.5912 32.7065 49.1512 32.7065C48.6712 32.7065 48.2712 32.8385 47.9512 33.1025C47.6312 33.3665 47.4272 33.7265 47.3392 34.1825Z" fill="#181725"/>
</svg>
