<svg width="18" height="18" viewBox="0 0 18 18" fill="none" xmlns="http://www.w3.org/2000/svg">
<path d="M17.1028 9.42311C17.1028 9.79894 16.9587 10.1622 16.6892 10.4253C16.426 10.6947 16.0626 10.845 15.6866 10.845H10.0221V16.5075C10.0221 16.8833 9.87167 17.2466 9.60223 17.5097C9.33905 17.7728 8.98188 17.9231 8.60592 17.9231C8.22995 17.9231 7.86651 17.7728 7.60334 17.5097C7.33389 17.2466 7.18351 16.8833 7.18351 16.5075V10.845H1.51893C1.14296 10.845 0.779525 10.6947 0.516348 10.4253C0.25317 10.1622 0.102783 9.79894 0.102783 9.42311C0.102783 9.04728 0.25317 8.69024 0.516348 8.4209C0.779525 8.15782 1.14296 8.00749 1.51893 8.00749H7.18351V2.345C7.18351 1.96917 7.33389 1.60587 7.60334 1.34279C7.86651 1.07344 8.22995 0.923111 8.60592 0.923111C8.98188 0.923111 9.33905 1.07344 9.60223 1.34279C9.87167 1.60587 10.0221 1.96917 10.0221 2.345V8.00749H15.6866C16.0626 8.00749 16.426 8.15782 16.6892 8.4209C16.9587 8.69024 17.1028 9.04728 17.1028 9.42311Z" fill="white"/>
</svg>
