<svg width="18" height="18" viewBox="0 0 18 18" fill="none" xmlns="http://www.w3.org/2000/svg">
<path d="M17.582 8.72205C17.582 9.09787 17.4379 9.46118 17.1685 9.72426C16.9053 9.9936 16.5419 10.1439 16.1659 10.1439H10.5013V15.8064C10.5013 16.1823 10.3509 16.5456 10.0815 16.8086C9.8183 17.0717 9.46113 17.222 9.08516 17.222C8.7092 17.222 8.34576 17.0717 8.08258 16.8086C7.81314 16.5456 7.66275 16.1823 7.66275 15.8064V10.1439H1.99818C1.62221 10.1439 1.25877 9.9936 0.995596 9.72426C0.732418 9.46118 0.582031 9.09787 0.582031 8.72205C0.582031 8.34622 0.732418 7.98918 0.995596 7.71984C1.25877 7.45676 1.62221 7.30642 1.99818 7.30642H7.66275V1.64393C7.66275 1.2681 7.81314 0.904802 8.08258 0.641722C8.34576 0.372378 8.7092 0.222046 9.08516 0.222046C9.46113 0.222046 9.8183 0.372378 10.0815 0.641722C10.3509 0.904802 10.5013 1.2681 10.5013 1.64393V7.30642H16.1659C16.5419 7.30642 16.9053 7.45676 17.1685 7.71984C17.4379 7.98918 17.582 8.34622 17.582 8.72205Z" fill="#53B175"/>
</svg>
