<svg width="30" height="43" viewBox="0 0 30 43" fill="none" xmlns="http://www.w3.org/2000/svg">
<path d="M11.9518 9.58781C12.4818 10.0628 13.1838 10.3518 13.9518 10.3518H15.9518C16.6899 10.3528 17.4023 10.0807 17.9518 9.58781H11.9518ZM11.9518 9.58781C11.4023 10.0807 10.6899 10.3528 9.95179 10.3518L11.9518 9.58781ZM11.0018 4.35181V4.30181H10.9518H7.95179C7.67331 4.30181 7.40624 4.41243 7.20932 4.60934C7.01241 4.80626 6.90179 5.07333 6.90179 5.35181V7.35181C6.90179 7.63028 7.01241 7.89736 7.20932 8.09427C7.40624 8.29118 7.67331 8.40181 7.95179 8.40181H9.95179C10.2303 8.40181 10.4973 8.29118 10.6942 8.09427C10.8912 7.89736 11.0018 7.63028 11.0018 7.35181V4.35181ZM7.96179 10.3018H7.91179V10.3518V20.3168V20.3668H7.96179H9.95179H10.0018V20.3168V15.3518C10.0018 14.8346 10.2072 14.3386 10.5729 13.9729C10.9386 13.6073 11.4346 13.4018 11.9518 13.4018H13.9518C14.469 13.4018 14.9649 13.6073 15.3306 13.9729C15.6963 14.3386 15.9018 14.8346 15.9018 15.3518V20.3168V20.3668H15.9518H21.9648H22.0148V20.3168V10.3518V10.3018H21.9648H19.9518C19.1965 10.3018 18.5063 10.0177 17.9852 9.55057L17.9518 9.52065L17.9184 9.55059C17.3781 10.0352 16.6776 10.3028 15.9519 10.3018H15.9518H13.9518C13.1965 10.3018 12.5063 10.0177 11.9852 9.55057L11.9518 9.52065L11.9184 9.55059C11.3781 10.0352 10.6776 10.3028 9.95185 10.3018H9.95179H7.96179ZM5.95995 9.52893C5.66351 9.25816 5.42548 8.92947 5.26068 8.56299C5.08946 8.18222 5.0012 7.76938 5.00179 7.35188V7.35181V5.35181C5.00179 4.56942 5.31259 3.81907 5.86582 3.26584C6.41905 2.71261 7.1694 2.40181 7.95179 2.40181H21.9518C22.7342 2.40181 23.4845 2.71261 24.0378 3.26584C24.591 3.81907 24.9018 4.56942 24.9018 5.35181V7.35181C24.9018 8.21914 24.5282 8.99984 23.9312 9.53972L23.9148 9.55461V9.57681V20.3168C23.9148 20.834 23.7093 21.33 23.3436 21.6957C22.9779 22.0614 22.482 22.2668 21.9648 22.2668H14.3248V22.2659L14.3155 22.2677C14.1956 22.2904 14.0738 22.3018 13.9518 22.3018H11.9518C11.8298 22.3018 11.708 22.2904 11.5881 22.2677L11.5882 22.2668H11.5788H7.96279C7.44561 22.2668 6.94962 22.0614 6.58393 21.6957C6.21823 21.33 6.01279 20.834 6.01279 20.3168V9.59681V9.47611L5.95995 9.52893ZM14.0018 15.3518V15.3018H13.9518H11.9518H11.9018V15.3518V20.3168V20.3668H11.9518H13.9518V20.3178H14.0018V20.3168V20.2668V15.3518ZM17.0018 4.35181V4.30181H16.9518H12.9518H12.9018V4.35181V7.35181C12.9018 7.63028 13.0124 7.89736 13.2093 8.09427C13.4062 8.29118 13.6733 8.40181 13.9518 8.40181H15.9518C16.2303 8.40181 16.4973 8.29118 16.6942 8.09427C16.8912 7.89736 17.0018 7.63028 17.0018 7.35181V4.35181ZM18.9518 4.30181H18.9018V4.35181V7.35181C18.9018 7.63028 19.0124 7.89736 19.2093 8.09427C19.4062 8.29118 19.6733 8.40181 19.9518 8.40181H21.9518C22.2303 8.40181 22.4973 8.29118 22.6942 8.09427C22.8912 7.89736 23.0018 7.63028 23.0018 7.35181V5.35181C23.0018 5.07333 22.8912 4.80626 22.6942 4.60934C22.4973 4.41243 22.2303 4.30181 21.9518 4.30181H18.9518ZM18.9518 13.4018H19.9518C20.2037 13.4018 20.4454 13.5019 20.6235 13.6801C20.8017 13.8582 20.9018 14.0999 20.9018 14.3518V17.3518C20.9018 17.6038 20.8017 17.8454 20.6235 18.0236C20.4454 18.2017 20.2037 18.3018 19.9518 18.3018H18.9518C18.6998 18.3018 18.4582 18.2017 18.28 18.0236C18.1019 17.8454 18.0018 17.6038 18.0018 17.3518V14.3518C18.0018 14.0999 18.1019 13.8582 18.28 13.6801C18.4582 13.5019 18.6998 13.4018 18.9518 13.4018Z" fill="#181725" stroke="white" stroke-width="0.1"/>
<path d="M4.30849 38.6762C3.50049 38.6762 2.81249 38.4962 2.24449 38.1362C1.68449 37.7682 1.29249 37.2602 1.06849 36.6122L2.25649 35.9162C2.59249 36.8602 3.28849 37.3322 4.34449 37.3322C4.85649 37.3322 5.24449 37.2322 5.50849 37.0322C5.77249 36.8322 5.90449 36.5642 5.90449 36.2282C5.90449 35.8922 5.76449 35.6322 5.48449 35.4482C5.20449 35.2642 4.70849 35.0642 3.99649 34.8482C3.26849 34.6322 2.68049 34.3762 2.23249 34.0802C1.68849 33.6962 1.41649 33.1322 1.41649 32.3882C1.41649 31.6442 1.68049 31.0562 2.20849 30.6242C2.72849 30.1842 3.36449 29.9642 4.11649 29.9642C4.78049 29.9642 5.36449 30.1282 5.86849 30.4562C6.38049 30.7762 6.77249 31.2282 7.04449 31.8122L5.88049 32.4842C5.52849 31.7002 4.94049 31.3082 4.11649 31.3082C3.71649 31.3082 3.39649 31.4042 3.15649 31.5962C2.91649 31.7802 2.79649 32.0322 2.79649 32.3522C2.79649 32.6642 2.91649 32.9122 3.15649 33.0962C3.39649 33.2722 3.84049 33.4602 4.48849 33.6602C4.88849 33.7962 5.12049 33.8762 5.18449 33.9002C5.28849 33.9322 5.49649 34.0122 5.80849 34.1402C6.06449 34.2442 6.26849 34.3562 6.42049 34.4762C7.04449 34.9642 7.33249 35.5402 7.28449 36.2042C7.28449 36.9642 7.00849 37.5682 6.45649 38.0162C5.92049 38.4562 5.20449 38.6762 4.30849 38.6762ZM11.5571 32.3642C12.2531 32.3642 12.8091 32.5882 13.2251 33.0362C13.6491 33.4762 13.8611 34.0762 13.8611 34.8362V38.5202H12.5651V34.9682C12.5651 34.5202 12.4451 34.1762 12.2051 33.9362C11.9651 33.6962 11.6371 33.5762 11.2211 33.5762C10.7491 33.5762 10.3771 33.7242 10.1051 34.0202C9.83314 34.3082 9.69714 34.7362 9.69714 35.3042V38.5202H8.40114V30.1202H9.69714V33.2882C10.0971 32.6722 10.7171 32.3642 11.5571 32.3642ZM20.3326 37.7642C19.7246 38.3722 18.9766 38.6762 18.0886 38.6762C17.2006 38.6762 16.4526 38.3722 15.8446 37.7642C15.2286 37.1482 14.9206 36.4002 14.9206 35.5202C14.9206 34.6402 15.2286 33.8922 15.8446 33.2762C16.4526 32.6682 17.2006 32.3642 18.0886 32.3642C18.9766 32.3642 19.7246 32.6682 20.3326 33.2762C20.9486 33.8922 21.2566 34.6402 21.2566 35.5202C21.2566 36.4002 20.9486 37.1482 20.3326 37.7642ZM16.2166 35.5202C16.2166 36.0642 16.3966 36.5162 16.7566 36.8762C17.1166 37.2362 17.5606 37.4162 18.0886 37.4162C18.6166 37.4162 19.0606 37.2362 19.4206 36.8762C19.7806 36.5162 19.9606 36.0642 19.9606 35.5202C19.9606 34.9762 19.7806 34.5242 19.4206 34.1642C19.0606 33.8042 18.6166 33.6242 18.0886 33.6242C17.5606 33.6242 17.1166 33.8042 16.7566 34.1642C16.3966 34.5242 16.2166 34.9762 16.2166 35.5202ZM25.8245 32.3642C26.6405 32.3642 27.3445 32.6722 27.9365 33.2882C28.5205 33.8962 28.8125 34.6402 28.8125 35.5202C28.8125 36.4082 28.5205 37.1562 27.9365 37.7642C27.3525 38.3722 26.6485 38.6762 25.8245 38.6762C24.9205 38.6762 24.2205 38.3402 23.7245 37.6682V40.9202H22.4285V32.5202H23.7245V33.3842C24.2125 32.7042 24.9125 32.3642 25.8245 32.3642ZM24.2645 36.9002C24.6245 37.2602 25.0765 37.4402 25.6205 37.4402C26.1645 37.4402 26.6165 37.2602 26.9765 36.9002C27.3365 36.5322 27.5165 36.0722 27.5165 35.5202C27.5165 34.9682 27.3365 34.5122 26.9765 34.1522C26.6165 33.7842 26.1645 33.6002 25.6205 33.6002C25.0765 33.6002 24.6245 33.7842 24.2645 34.1522C23.9045 34.5122 23.7245 34.9682 23.7245 35.5202C23.7245 36.0642 23.9045 36.5242 24.2645 36.9002Z" fill="#181725"/>
</svg>
