<svg width="15" height="16" viewBox="0 0 15 16" fill="none" xmlns="http://www.w3.org/2000/svg">
<path d="M14.5445 13.1739L14.5436 13.1729L10.1518 8.9412L10.1516 8.94098L9.15995 7.99803L14.5436 2.82354C14.6566 2.71496 14.7487 2.59388 14.8067 2.46C14.8637 2.32846 14.8984 2.18485 14.8984 2.0401C14.8984 1.88844 14.876 1.74341 14.806 1.60805C14.7496 1.47837 14.6699 1.34645 14.5655 1.24612L14.5655 1.24608L14.5635 1.24436C14.4517 1.14759 14.3265 1.05962 14.188 1.00417C14.049 0.948498 13.8889 0.926898 13.7423 0.926898C13.5925 0.926898 13.4441 0.960118 13.2978 1.01421L13.2978 1.0142L13.2966 1.0147C13.1581 1.07014 13.0323 1.15831 12.93 1.25665L6.73109 7.21478C6.62718 7.31464 6.54693 7.43615 6.48986 7.5678L6.48984 7.56779L6.48932 7.56911C6.4329 7.71009 6.39812 7.85335 6.39812 7.99823C6.39812 8.14298 6.43284 8.28658 6.48986 8.41813C6.54693 8.54978 6.62718 8.67128 6.73109 8.77114L12.93 14.7293L12.93 14.7293L12.931 14.7302C13.1493 14.929 13.4356 15.0274 13.7313 15.0274C14.0294 15.0274 14.3155 14.9064 14.5217 14.7082C14.7389 14.4995 14.8544 14.2344 14.8546 13.9468C14.8659 13.6585 14.7503 13.3826 14.5445 13.1739Z" fill="#B3B3B3" stroke="#B3B3B3" stroke-width="0.1"/>
<path d="M0.990371 2.78052L0.991288 2.78143L5.38312 7.01317L5.38335 7.0134L6.37496 7.95634L0.991332 13.1308C0.878359 13.2394 0.786245 13.3605 0.728206 13.4944C0.67118 13.6259 0.636462 13.7695 0.636462 13.9143C0.636462 14.0659 0.658902 14.211 0.728907 14.3463C0.785309 14.476 0.865047 14.6079 0.969428 14.7083L0.96938 14.7083L0.971365 14.71C1.08323 14.8068 1.20846 14.8948 1.34691 14.9502C1.48592 15.0059 1.64598 15.0275 1.79263 15.0275C1.94242 15.0275 2.09077 14.9943 2.23711 14.9402L2.23711 14.9402L2.23836 14.9397C2.3768 14.8842 2.50257 14.7961 2.60489 14.6977L8.80383 8.7396C8.90773 8.63973 8.98798 8.51823 9.04505 8.38658L9.04507 8.38659L9.0456 8.38527C9.10201 8.24429 9.13679 8.10103 9.13679 7.95615C9.13679 7.8114 9.10208 7.66779 9.04505 7.53625C8.98798 7.4046 8.90773 7.2831 8.80383 7.18323L2.60489 1.2251L2.6049 1.22509L2.6039 1.22418C2.38557 1.02538 2.09933 0.92693 1.80359 0.92693C1.50552 0.92693 1.21941 1.048 1.01324 1.24616C0.796053 1.4549 0.680538 1.72001 0.680272 2.00755C0.669028 2.29584 0.784589 2.57174 0.990371 2.78052Z" fill="#B3B3B3" stroke="#B3B3B3" stroke-width="0.1"/>
</svg>
